<svg width="70" height="70" viewBox="0 0 70 70" fill="none" xmlns="http://www.w3.org/2000/svg">
<g clip-path="url(#clip0_328:1957)">
<path d="M59.7917 64.1667H7.29167C3.26958 64.1667 0 60.8942 0 56.875V10.2083C0 9.40333 0.653333 8.75 1.45833 8.75C2.26333 8.75 2.91667 9.40333 2.91667 10.2083V56.875C2.91667 59.2871 4.87958 61.25 7.29167 61.25H59.7917C60.5938 61.25 61.25 60.5967 61.25 59.7917V48.125C61.25 47.32 61.9033 46.6667 62.7083 46.6667C63.5133 46.6667 64.1667 47.32 64.1667 48.125V59.7917C64.1667 62.2038 62.2038 64.1667 59.7917 64.1667Z" fill="#CE8884"/>
<path d="M62.7083 32.0834C61.9033 32.0834 61.25 31.43 61.25 30.625V18.9584C61.25 18.1534 60.5938 17.5 59.7917 17.5H7.29167C3.26958 17.5 0 14.2275 0 10.2084C0 6.18919 3.26958 2.91669 7.29167 2.91669H51.0417C53.4538 2.91669 55.4167 4.8796 55.4167 7.29169V14.5834H59.7917C62.2038 14.5834 64.1667 16.5463 64.1667 18.9584V30.625C64.1667 31.43 63.5133 32.0834 62.7083 32.0834ZM7.29167 5.83335C4.87958 5.83335 2.91667 7.79627 2.91667 10.2084C2.91667 12.6204 4.87958 14.5834 7.29167 14.5834H52.5V7.29169C52.5 6.48669 51.8438 5.83335 51.0417 5.83335H7.29167Z" fill="#CE8884"/>
<path d="M68.5417 49.5834H53.9583C48.3292 49.5834 43.75 45.0042 43.75 39.375C43.75 33.7459 48.3292 29.1667 53.9583 29.1667H68.5417C69.3467 29.1667 70 29.82 70 30.625V48.125C70 48.93 69.3467 49.5834 68.5417 49.5834ZM53.9583 32.0834C49.9363 32.0834 46.6667 35.3559 46.6667 39.375C46.6667 43.3942 49.9363 46.6667 53.9583 46.6667H67.0833V32.0834H53.9583Z" fill="#CE8884"/>
<path d="M53.9583 43.75C51.5462 43.75 49.5833 41.7871 49.5833 39.375C49.5833 36.9629 51.5462 35 53.9583 35C56.3703 35 58.3333 36.9629 58.3333 39.375C58.3333 41.7871 56.3703 43.75 53.9583 43.75ZM53.9583 37.9167C53.1562 37.9167 52.4999 38.57 52.4999 39.375C52.4999 40.18 53.1562 40.8333 53.9583 40.8333C54.7603 40.8333 55.4166 40.18 55.4166 39.375C55.4166 38.57 54.7603 37.9167 53.9583 37.9167Z" fill="#CE8884"/>
</g>
<defs>
<clipPath id="clip0_328:1957">
<rect width="70" height="70" fill="white"/>
</clipPath>
</defs>
</svg>
