<svg width="42" height="33" viewBox="0 0 42 33" fill="none" xmlns="http://www.w3.org/2000/svg">
<path d="M25.9866 3.65875H15.3359V23.1999H25.9866V3.65875Z" fill="#FF5A00"/>
<path d="M8.13267 32.1459V30.0744C8.13267 29.2819 7.66 28.763 6.8486 28.763C6.44289 28.763 6.00174 28.8998 5.69845 29.3503C5.46212 28.9722 5.12337 28.763 4.61526 28.763C4.27652 28.763 3.93778 28.8676 3.66993 29.2457V28.8314H2.96094V32.1459H3.66993V30.3157C3.66993 29.7284 3.97323 29.4509 4.44589 29.4509C4.91855 29.4509 5.15489 29.7606 5.15489 30.3157V32.1459H5.86388V30.3157C5.86388 29.7284 6.20262 29.4509 6.63984 29.4509C7.1125 29.4509 7.34883 29.7606 7.34883 30.3157V32.1459H8.13267ZM18.6494 28.8314H17.4993V27.8298H16.7903V28.8314H16.1483V29.4871H16.7903V31.0076C16.7903 31.7678 17.0936 32.2143 17.905 32.2143C18.2083 32.2143 18.547 32.1097 18.7834 31.973L18.5785 31.3495C18.3737 31.4862 18.1374 31.5225 17.968 31.5225C17.6293 31.5225 17.4954 31.3133 17.4954 30.9714V29.4871H18.6455V28.8314H18.6494ZM24.668 28.759C24.2623 28.759 23.9905 28.9682 23.8212 29.2417V28.8274H23.1122V32.1419H23.8212V30.2755C23.8212 29.7244 24.0575 29.4107 24.4987 29.4107C24.6326 29.4107 24.8019 29.4469 24.9398 29.479L25.1446 28.7872C25.0028 28.759 24.8019 28.759 24.668 28.759ZM15.5732 29.105C15.2344 28.8636 14.7618 28.759 14.2537 28.759C13.4423 28.759 12.9026 29.1733 12.9026 29.829C12.9026 30.3801 13.3083 30.6938 14.0173 30.7944L14.3561 30.8306C14.7263 30.899 14.9312 31.0036 14.9312 31.1765C14.9312 31.4179 14.6594 31.5908 14.1867 31.5908C13.714 31.5908 13.3398 31.4179 13.1035 31.2449L12.7648 31.796C13.135 32.0735 13.6431 32.2103 14.1513 32.2103C15.0966 32.2103 15.6401 31.7598 15.6401 31.1403C15.6401 30.553 15.199 30.2433 14.5254 30.1387L14.1867 30.1025C13.8834 30.0663 13.6471 29.9979 13.6471 29.7928C13.6471 29.5514 13.8834 29.4147 14.2576 29.4147C14.6633 29.4147 15.069 29.5877 15.2738 29.6922L15.5732 29.105ZM34.4364 28.759C34.0307 28.759 33.7589 28.9682 33.5896 29.2417V28.8274H32.8806V32.1419H33.5896V30.2755C33.5896 29.7244 33.8259 29.4107 34.267 29.4107C34.401 29.4107 34.5703 29.4469 34.7082 29.479L34.913 28.7952C34.7752 28.759 34.5743 28.759 34.4364 28.759ZM25.377 30.4887C25.377 31.4903 26.0545 32.2143 27.1022 32.2143C27.5749 32.2143 27.9137 32.1097 28.2524 31.8362L27.9137 31.2489C27.6419 31.4581 27.374 31.5587 27.0668 31.5587C26.4917 31.5587 26.086 31.1443 26.086 30.4887C26.086 29.8652 26.4917 29.4509 27.0668 29.4187C27.3701 29.4187 27.6419 29.5233 27.9137 29.7284L28.2524 29.1412C27.9137 28.8636 27.5749 28.763 27.1022 28.763C26.0545 28.759 25.377 29.4871 25.377 30.4887ZM31.9352 30.4887V28.8314H31.2262V29.2457C30.9899 28.936 30.6512 28.763 30.21 28.763C29.2962 28.763 28.5872 29.4871 28.5872 30.4887C28.5872 31.4903 29.2962 32.2143 30.21 32.2143C30.6827 32.2143 31.0214 32.0413 31.2262 31.7316V32.1459H31.9352V30.4887ZM29.3316 30.4887C29.3316 29.9014 29.7019 29.4187 30.3124 29.4187C30.8875 29.4187 31.2932 29.8692 31.2932 30.4887C31.2932 31.076 30.8875 31.5587 30.3124 31.5587C29.7058 31.5225 29.3316 31.0719 29.3316 30.4887ZM20.8473 28.759C19.902 28.759 19.2245 29.4509 19.2245 30.4847C19.2245 31.5225 19.902 32.2103 20.8828 32.2103C21.3554 32.2103 21.8281 32.0735 22.2023 31.7598L21.8636 31.2409C21.5918 31.45 21.253 31.5868 20.9182 31.5868C20.4771 31.5868 20.0399 31.3776 19.9374 30.7944H22.3362C22.3362 30.6898 22.3362 30.6214 22.3362 30.5168C22.3677 29.4509 21.7572 28.759 20.8473 28.759ZM20.8473 29.3825C21.2885 29.3825 21.5918 29.6601 21.6587 30.1749H19.969C20.0359 29.7284 20.3392 29.3825 20.8473 29.3825ZM38.4619 30.4887V27.5201H37.7529V29.2457C37.5166 28.936 37.1779 28.763 36.7367 28.763C35.8229 28.763 35.1139 29.4871 35.1139 30.4887C35.1139 31.4903 35.8229 32.2143 36.7367 32.2143C37.2094 32.2143 37.5481 32.0413 37.7529 31.7316V32.1459H38.4619V30.4887ZM35.8583 30.4887C35.8583 29.9014 36.2286 29.4187 36.8391 29.4187C37.4142 29.4187 37.8199 29.8692 37.8199 30.4887C37.8199 31.076 37.4142 31.5587 36.8391 31.5587C36.2286 31.5225 35.8583 31.0719 35.8583 30.4887ZM12.1227 30.4887V28.8314H11.4137V29.2457C11.1774 28.936 10.8387 28.763 10.3975 28.763C9.4837 28.763 8.7747 29.4871 8.7747 30.4887C8.7747 31.4903 9.4837 32.2143 10.3975 32.2143C10.8702 32.2143 11.2089 32.0413 11.4137 31.7316V32.1459H12.1227V30.4887ZM9.48764 30.4887C9.48764 29.9014 9.85789 29.4187 10.4684 29.4187C11.0435 29.4187 11.4492 29.8692 11.4492 30.4887C11.4492 31.076 11.0435 31.5587 10.4684 31.5587C9.85789 31.5225 9.48764 31.0719 9.48764 30.4887Z" fill="black"/>
<path d="M16.0465 13.4294C16.0465 9.45923 17.8741 5.93556 20.6786 3.65885C18.6146 2.00159 16.011 1 13.1711 1C6.44351 1 1 6.55904 1 13.4294C1 20.2998 6.44351 25.8588 13.1711 25.8588C16.011 25.8588 18.6146 24.8572 20.6786 23.2C17.8702 20.9554 16.0465 17.3996 16.0465 13.4294Z" fill="#EB001B"/>
<path d="M40.3583 13.4294C40.3583 20.2998 34.9147 25.8588 28.1872 25.8588C25.3472 25.8588 22.7437 24.8572 20.6797 23.2C23.5196 20.9192 25.3118 17.3996 25.3118 13.4294C25.3118 9.45923 23.4842 5.93556 20.6797 3.65885C22.7397 2.00159 25.3433 1 28.1832 1C34.9147 1 40.3583 6.59524 40.3583 13.4294Z" fill="#F79E1B"/>
</svg>
