<svg width="70" height="70" viewBox="0 0 70 70" fill="none" xmlns="http://www.w3.org/2000/svg">
<path d="M21.646 25.2058L17.5445 21.1043V12.915C17.5445 12.0371 16.9546 11.4473 16.0767 11.4473C15.1988 11.4473 14.6089 12.0371 14.6089 12.915V21.6941C14.6089 21.9822 14.897 22.5721 14.897 22.8601L19.314 27.2497C19.6021 27.5377 19.9039 27.5377 20.48 27.5377C21.0561 27.5377 21.3579 27.5377 21.646 27.2497C22.2358 26.6598 22.2358 25.7819 21.646 25.2058Z" fill="#CE8884"/>
<path d="M63.7859 34.8492L49.1632 23.1482C48.8751 22.8602 48.2853 22.8602 47.6954 22.8602C47.1056 23.1482 46.8175 23.45 46.8175 24.0261L43.8957 35.7271C43.8957 36.0151 43.8957 36.605 44.1838 36.893C44.4718 37.1811 44.7736 37.4829 45.3497 37.4829H62.908C63.4978 37.4829 64.0739 37.1948 64.3757 36.605C64.6638 36.0151 64.3757 35.439 63.7859 34.8492ZM47.1193 34.8492L49.1632 27.236L58.8202 34.8492H47.1193Z" fill="#CE8884"/>
<path d="M66.7213 30.1715L54.4305 19.9246C52.6747 18.4569 50.329 17.579 48.2851 17.579H31.6048C29.5609 10.8437 23.4155 5.87805 16.0905 5.87805C7.31136 5.87805 0 13.1894 0 21.9685C0 26.6461 2.04389 31.0357 5.55553 33.9712L0.877912 43.0521C0.288065 44.2181 0 45.6859 0 46.8518C0 51.5295 3.79971 55.3429 8.49105 55.3429H8.77912C9.36896 60.3223 13.7585 64.122 18.7242 64.122C18.7791 64.122 18.8202 64.122 18.8751 64.122C18.9163 64.122 18.9711 64.122 19.0123 64.122C24.17 64.122 28.4361 60.3086 29.1494 55.3429H40.6171C40.7543 56.2619 41.0012 57.1399 41.3579 57.9629C42.8942 61.598 46.5567 64.122 50.6171 64.122C50.6445 64.122 50.672 64.122 50.6857 64.122C50.7131 64.122 50.7268 64.122 50.7543 64.122C55.9257 64.122 60.1918 60.2949 60.8914 55.3292C62.2357 55.2057 63.5526 54.3552 64.3619 53.0109L67.2837 47.4554C68.7514 44.5336 69.986 41.022 69.986 37.5103C70.1369 34.5474 69.0669 31.6393 66.7213 30.1715ZM2.9218 21.6805C2.9218 14.3691 8.77912 8.51179 16.0905 8.51179C23.4018 8.51179 29.2591 14.3691 29.2591 21.6805C29.2591 28.9918 23.4018 34.8491 16.0905 34.8491C8.77912 34.8491 2.9218 29.0055 2.9218 21.6805ZM19.026 61.1865C14.9794 61.1865 11.7146 57.908 11.7146 53.8751C11.7146 49.8285 14.9931 46.5638 19.026 46.5638C23.0589 46.5638 26.3373 49.8422 26.3373 53.8751C26.3373 57.9218 23.0589 61.1865 19.026 61.1865ZM50.768 61.1865C46.7214 61.1865 43.4566 57.908 43.4566 53.8751C43.4566 49.8285 46.7351 46.5638 50.768 46.5638C54.8009 46.5638 58.0793 49.8422 58.0793 53.8751C58.0793 57.9218 54.8009 61.1865 50.768 61.1865ZM67.3386 37.4829C67.0505 40.4595 66.1726 43.3402 64.7048 46.262C64.7048 46.262 62.6198 50.4869 61.783 51.8175C61.5498 52.1879 61.495 52.1879 61.1109 52.4622C60.6582 49.9245 59.3825 47.7435 57.5855 46.2346C55.7748 44.6159 53.388 43.6283 50.768 43.6283C45.5142 43.6283 41.1795 47.5926 40.5897 52.6954H29.2591C29.1083 51.3786 28.683 50.144 28.052 49.0466C26.3236 45.823 22.9217 43.6283 19.0123 43.6283C13.7585 43.6283 9.42383 47.5926 8.83399 52.6954C5.73386 52.572 3.49793 49.9931 3.49793 47.1399C3.49793 46.262 3.78599 45.3841 4.08778 44.5062L8.47733 35.727C10.823 37.1948 13.7448 38.0727 16.6666 38.0727C25.4457 38.0727 32.7571 30.7614 32.7571 21.9822C32.7571 21.3924 32.7571 21.1043 32.7571 20.5145H48.8475C50.3153 20.5145 51.5224 21.1043 52.6884 21.9822L64.9792 32.2291C66.4607 33.3951 67.5443 35.4527 67.3386 37.4829Z" fill="#CE8884"/>
</svg>
