<svg width="70" height="70" viewBox="0 0 70 70" fill="none" xmlns="http://www.w3.org/2000/svg">
<path d="M63.9526 29.3762L49.2948 17.6472C49.0061 17.3584 48.4148 17.3584 47.8235 17.3584C47.2323 17.6472 46.9435 17.9497 46.9435 18.5272L44.0147 30.2562C44.0147 30.5449 44.0147 31.1362 44.3035 31.4249C44.5922 31.7137 44.8947 32.0162 45.4722 32.0162H63.0726C63.6639 32.0162 64.2414 31.7275 64.5439 31.1362C64.8327 30.5449 64.5439 29.9674 63.9526 29.3762ZM47.246 29.0874L49.2948 21.456L58.975 29.0874H47.246Z" fill="#CE8884"/>
<path d="M66.8952 24.096L54.5749 13.8246C52.8149 12.3533 50.4636 11.4733 48.4148 11.4733H19.0854C15.8541 11.4733 12.9253 13.2333 11.454 16.1621L10.8627 17.3309H1.47128C0.591263 17.3309 0 17.9222 0 18.8022C0 19.6822 0.591263 20.2735 1.47128 20.2735H9.39145L6.46264 26.1448H1.47128C0.591263 26.1448 0 26.7361 0 27.6161C0 28.4961 0.591263 29.0874 1.47128 29.0874H4.99136L2.06254 34.9588H1.47128C0.591263 34.9588 0 35.55 0 36.43C0 37.0213 0.288756 37.3101 0.880019 37.5988C0.288756 38.7676 0 39.9501 0 40.8301C0 45.519 3.80883 49.3416 8.51143 49.3416H8.78644C9.36395 54.4979 13.7503 58.513 19.0717 58.513C24.393 58.513 28.7656 54.4979 29.3569 49.3416H40.7834C41.0996 52.0091 42.5022 54.3329 44.496 55.928C46.3247 57.5367 48.7173 58.5268 51.3436 58.5268C56.7062 58.5268 61.1063 54.4567 61.6426 49.2316C62.7838 48.9566 63.8564 48.159 64.5439 47.004L67.4727 41.4352C68.944 38.2038 69.7415 35 69.9752 31.4799C70.1677 28.5374 69.2465 26.1586 66.8952 24.096ZM19.0854 55.488C15.0291 55.488 11.7565 52.2016 11.7565 48.159C11.7565 44.1027 15.0428 40.8301 19.0854 40.8301C23.1417 40.8301 26.4143 44.1165 26.4143 48.159C26.4143 52.2016 23.128 55.488 19.0854 55.488ZM51.3436 55.488C47.2873 55.488 44.0147 52.2016 44.0147 48.159C44.0147 44.1027 47.301 40.8301 51.3436 40.8301C55.3999 40.8301 58.6725 44.1165 58.6725 48.159C58.6863 52.2016 55.3999 55.488 51.3436 55.488ZM67.2389 31.4387C66.9502 34.4225 66.0702 37.8876 64.5989 40.2389C64.5989 40.2389 62.5501 44.584 61.5326 45.8078C61.5188 45.8353 61.4776 45.8627 61.4501 45.8903C60.4188 41.2702 56.2937 37.8051 51.3573 37.8051C46.146 37.8051 41.8284 41.6689 41.1134 46.6878H29.3569C28.9306 43.0714 26.5106 40.0739 23.3067 38.6988C22.0142 38.1213 20.5979 37.8051 19.0992 37.8051C13.8878 37.8051 9.5702 41.6689 8.85519 46.674C5.77512 46.5365 3.54758 43.9652 3.54758 41.1051C3.54758 40.2251 3.83633 39.3451 4.13884 38.4651L4.42759 37.8738H10.8765C11.7565 37.8738 12.3478 37.2826 12.3478 36.4025C12.3478 35.5225 11.7565 34.9313 10.8765 34.9313H5.88513L8.81394 29.0599H16.7341C17.6141 29.0599 18.2054 28.4686 18.2054 27.5886C18.2054 26.7086 17.6141 26.1173 16.7341 26.1173H10.2852L13.214 20.246H22.6055C23.4855 20.246 24.0768 19.6547 24.0768 18.7747C24.0768 17.8947 23.4855 17.3034 22.6055 17.3034H14.6853C15.5653 15.5434 17.6141 14.3746 19.6767 14.3746H49.006C50.4773 14.3746 51.4123 14.9658 52.5811 15.8459L64.9014 26.1173C66.3589 27.3274 67.4452 29.3899 67.2389 31.4387Z" fill="#CE8884"/>
</svg>
