<svg width="56" height="31" viewBox="0 0 56 31" fill="none" xmlns="http://www.w3.org/2000/svg">
<path d="M51.7913 7.02432H48.3681C47.3331 7.02432 46.537 7.34277 46.0593 8.37771L39.5312 23.265H44.1487C44.1487 23.265 44.9448 21.2747 45.104 20.797C45.5817 20.797 50.1195 20.797 50.7564 20.797C50.9156 21.3543 51.3137 23.1853 51.3137 23.1853H55.4534L51.7913 7.02432ZM46.3778 17.4534C46.7758 16.498 48.1292 12.9155 48.1292 12.9155C48.1292 12.9951 48.5273 11.9602 48.6865 11.4029L49.005 12.8359C49.005 12.8359 49.8807 16.7369 50.0399 17.533H46.3778V17.4534Z" fill="#3362AB"/>
<path d="M39.8496 17.9312C39.8496 21.2749 36.8243 23.504 32.1273 23.504C30.137 23.504 28.2263 23.106 27.1914 22.6283L27.8283 18.9662L28.3856 19.205C29.8186 19.8419 30.7739 20.0807 32.5253 20.0807C33.7991 20.0807 35.1525 19.6031 35.1525 18.4885C35.1525 17.772 34.5952 17.2944 32.8438 16.4982C31.172 15.7021 28.9428 14.4284 28.9428 12.1196C28.9428 8.9352 32.0477 6.78571 36.4263 6.78571C38.0981 6.78571 39.5311 7.10415 40.4068 7.5022L39.7699 11.0051L39.4515 10.6866C38.6554 10.3682 37.6204 10.0498 36.1078 10.0498C34.436 10.1294 33.6399 10.8459 33.6399 11.4828C33.6399 12.1993 34.5952 12.7565 36.1078 13.473C38.6554 14.6672 39.8496 16.0206 39.8496 17.9312Z" fill="#3362AB"/>
<path d="M1 7.18369L1.07961 6.86525H7.92615C8.88149 6.86525 9.59799 7.18369 9.83682 8.21864L11.3494 15.3836C9.83682 11.5623 6.33394 8.45747 1 7.18369Z" fill="#F9B50B"/>
<path d="M20.9827 7.0244L14.0565 23.1854H9.35946L5.37891 9.65157C8.2449 11.4826 10.6332 14.3486 11.509 16.3389L11.9866 18.0107L16.2856 6.94479H20.9827V7.0244Z" fill="#3362AB"/>
<path d="M22.8137 6.94479H27.1923L24.4059 23.1854H20.0273L22.8137 6.94479Z" fill="#3362AB"/>
</svg>
