<svg width="30" height="30" viewBox="0 0 30 30" fill="none" xmlns="http://www.w3.org/2000/svg">
<circle cx="15" cy="15" r="15" fill="#282828"/>
<path d="M21.8844 16.7474L21.8749 16.7385C21.7242 16.5991 21.2627 16.1491 21.1071 15.9524C20.9244 15.707 20.9665 15.5462 21.1034 15.3053C21.2764 15.0008 21.6231 14.5338 21.99 14.0393C23.1651 12.4558 23.9238 11.3596 23.7676 10.581L23.6835 10.1651L19.3437 10.167C19.3285 10.208 19.1021 11.2048 18.1464 12.9021C17.4534 14.1328 16.9989 14.5194 16.8388 14.5876L16.814 14.5801C16.7619 14.5156 16.6709 14.3416 16.6335 13.893C16.5944 13.4232 16.6291 12.8543 16.6626 12.3042C16.7018 11.6591 16.7355 11.102 16.6546 10.7033L16.5228 10.0539C16.3635 10.0284 15.7804 9.80301 14.1558 9.78588C12.7492 9.77145 12.336 9.97501 12.1331 10.1544L11.462 10.7479L12.3103 11.0338C12.6332 11.1427 12.7403 11.2683 12.8283 11.8909C12.8856 12.2966 12.9156 12.9786 12.8537 13.5874C12.7647 14.4603 12.5513 14.6227 12.5403 14.6313C12.5035 14.6188 12.1918 14.4822 11.6507 13.3359C11.2754 12.5409 10.9463 11.6006 10.7059 10.9139C10.4307 10.1276 10.4802 10.295 10.3406 9.92348L6.14209 9.92335L6.41379 10.6275C7.54648 13.566 8.58574 15.8608 9.97653 17.509C11.5131 19.33 13.4228 20.2835 15.9952 20.2835H16.5122V19.7655C16.5122 19.2812 16.5522 18.9325 16.6379 18.6681C16.6903 18.507 16.7599 18.3739 16.833 18.2343C16.9415 18.0287 17.0476 17.9406 17.1055 17.9275C17.158 17.9155 17.2504 17.9541 17.3527 18.0306C17.6465 18.25 17.8797 18.5385 18.1266 18.8439C18.4829 19.2846 18.8512 19.7401 19.4357 20.0384C19.755 20.2014 20.3404 20.2837 20.6626 20.2837C20.7478 20.2837 23.7854 20.2835 23.7891 20.2835L23.7669 19.7442C23.7338 18.9378 23.1003 17.9294 21.8844 16.7474ZM20.6827 19.2475H20.6743C20.4522 19.2511 20.0282 19.1781 19.9049 19.1153C19.5163 18.917 19.2448 18.5809 18.9301 18.1919C18.654 17.8502 18.3684 17.4969 17.9708 17.2C17.6493 16.9597 17.3573 16.8894 17.1255 16.8894C17.0328 16.8894 16.9496 16.9006 16.8783 16.9168C16.6091 16.9775 16.2242 17.1715 15.9182 17.7514C15.8319 17.9164 15.734 18.1033 15.6547 18.3477C15.5716 18.6035 15.5199 18.8877 15.4953 19.2335C13.5568 19.1231 12.0441 18.3547 10.7662 16.8402C9.57801 15.432 8.64323 13.4623 7.65325 10.959C7.72487 10.959 9.51971 10.9592 9.62567 10.9592C9.65812 11.0506 9.69312 11.1507 9.73028 11.2567C9.98946 11.9974 10.3445 13.0117 10.7628 13.8767C11.3618 15.1154 11.9088 15.6678 12.5364 15.6678C12.8497 15.6678 13.1307 15.5348 13.3489 15.2829C13.66 14.9239 13.8407 14.3315 13.9013 13.4715C13.9491 12.7933 13.9047 12.1179 13.8522 11.7457C13.8088 11.4395 13.747 11.118 13.5962 10.83C14.2389 10.801 15.0993 10.8469 15.6445 10.9252C15.694 11.1956 15.6617 11.727 15.6305 12.2411C15.5549 13.4829 15.477 14.7645 16.133 15.3641C16.2484 15.4696 16.3708 15.5261 16.3743 15.5284L16.7082 15.6311C16.8371 15.5913 17.5834 15.9706 18.9965 13.4997C19.4493 12.7079 19.8708 11.7956 20.0978 11.1998C20.6242 11.1987 22.4177 11.2007 22.6284 11.201C22.33 11.8592 21.6226 12.7979 21.1602 13.421C20.7571 13.9641 20.4091 14.4332 20.2049 14.7926C19.8255 15.4602 19.8893 16.0552 20.2844 16.5801L20.2906 16.5882C20.5112 16.8695 21.0558 17.3902 21.1687 17.4951C21.987 18.2912 22.3814 18.863 22.5691 19.2474H20.6827V19.2475Z" fill="white"/>
</svg>
