<svg width="30" height="30" viewBox="0 0 30 30" fill="none" xmlns="http://www.w3.org/2000/svg">
<circle cx="15" cy="15" r="15" fill="#282828"/>
<path d="M8.76153 23.8236H21.2386C22.6639 23.8236 23.8236 22.6639 23.8236 21.2386V8.76153C23.8236 7.33614 22.6639 6.17651 21.2386 6.17651H8.76153C7.33614 6.17651 6.17651 7.33614 6.17651 8.76153V21.2386C6.17651 22.6639 7.33614 23.8236 8.76153 23.8236ZM7.21052 8.76153C7.21052 7.90632 7.90632 7.21052 8.76153 7.21052H21.2386C22.0938 7.21052 22.7896 7.90632 22.7896 8.76153V21.2386C22.7896 22.0938 22.0938 22.7896 21.2386 22.7896H8.76153C7.90632 22.7896 7.21052 22.0938 7.21052 21.2386V8.76153Z" fill="white"/>
<path d="M15 19.653C17.5656 19.653 19.653 17.5656 19.653 15C19.653 12.4343 17.5656 10.3469 15 10.3469C12.4343 10.3469 10.3469 12.4343 10.3469 15C10.3469 17.5656 12.4343 19.653 15 19.653ZM15 11.3809C16.9955 11.3809 18.619 13.0044 18.619 15C18.619 16.9955 16.9955 18.619 15 18.619C13.0044 18.619 11.3809 16.9955 11.3809 15C11.3809 13.0044 13.0044 11.3809 15 11.3809Z" fill="white"/>
<path d="M20.1699 11.3813C21.0251 11.3813 21.7209 10.6855 21.7209 9.83031C21.7209 8.9751 21.0251 8.2793 20.1699 8.2793C19.3147 8.2793 18.6189 8.9751 18.6189 9.83031C18.6189 10.6855 19.3147 11.3813 20.1699 11.3813ZM20.1699 9.3133C20.4549 9.3133 20.6869 9.54528 20.6869 9.83031C20.6869 10.1153 20.4549 10.3473 20.1699 10.3473C19.8849 10.3473 19.6529 10.1153 19.6529 9.83031C19.6529 9.54528 19.8849 9.3133 20.1699 9.3133Z" fill="white"/>
</svg>
