<svg width="70" height="70" viewBox="0 0 70 70" fill="none" xmlns="http://www.w3.org/2000/svg">
<g clip-path="url(#clip0_328:1869)">
<path d="M55.4166 70C55.0812 70 54.7487 69.8862 54.4774 69.6558C53.9203 69.1862 40.8333 58.0242 40.8333 46.6667C40.8333 38.6254 47.3753 32.0833 55.4166 32.0833C63.4578 32.0833 69.9999 38.6254 69.9999 46.6667C69.9999 58.0242 56.9128 69.1862 56.3557 69.6558C56.0845 69.8862 55.752 70 55.4166 70V70ZM55.4166 35C48.9824 35 43.7499 40.2325 43.7499 46.6667C43.7499 55.0346 52.4912 63.8604 55.4166 66.5817C58.342 63.8604 67.0832 55.0346 67.0832 46.6667C67.0832 40.2325 61.8507 35 55.4166 35Z" fill="#CE8884"/>
<path d="M55.4166 52.5C52.1995 52.5 49.5833 49.8837 49.5833 46.6666C49.5833 43.4496 52.1995 40.8333 55.4166 40.8333C58.6337 40.8333 61.2499 43.4496 61.2499 46.6666C61.2499 49.8837 58.6337 52.5 55.4166 52.5ZM55.4166 43.75C53.8095 43.75 52.4999 45.0596 52.4999 46.6666C52.4999 48.2737 53.8095 49.5833 55.4166 49.5833C57.0237 49.5833 58.3333 48.2737 58.3333 46.6666C58.3333 45.0596 57.0237 43.75 55.4166 43.75Z" fill="#CE8884"/>
<path d="M68.5417 26.25H1.45833C0.653333 26.25 0 25.5966 0 24.7916C0 23.9866 0.653333 23.3333 1.45833 23.3333H68.5417C69.3467 23.3333 70 23.9866 70 24.7916C70 25.5966 69.3467 26.25 68.5417 26.25Z" fill="#CE8884"/>
<path d="M65.6251 26.25H4.3751C3.9551 26.25 3.55843 26.0692 3.28135 25.7571C3.00427 25.4421 2.87593 25.025 2.92843 24.6108L5.52718 3.8325C5.79843 1.64792 7.6651 0 9.86718 0H60.133C62.3351 0 64.2018 1.64792 64.473 3.8325L67.0718 24.6108C67.1243 25.025 66.9959 25.4421 66.7188 25.7571C66.4418 26.0692 66.0451 26.25 65.6251 26.25V26.25ZM6.02593 23.3333H63.9713L61.5797 4.19417C61.4893 3.465 60.868 2.91667 60.133 2.91667H9.86718C9.13218 2.91667 8.51093 3.465 8.42052 4.19417L6.02593 23.3333Z" fill="#CE8884"/>
<path d="M18.9583 26.25C18.8999 26.25 18.8387 26.2471 18.7774 26.2384C17.9783 26.1392 17.4124 25.41 17.5116 24.6109L20.4283 1.27752C20.5304 0.478354 21.2449 -0.0787294 22.0558 0.0116872C22.8549 0.110854 23.4208 0.840021 23.3216 1.63919L20.4049 24.9725C20.3116 25.7104 19.6845 26.25 18.9583 26.25V26.25Z" fill="#CE8884"/>
<path d="M35 26.25C34.1951 26.25 33.5417 25.5967 33.5417 24.7917V1.45833C33.5417 0.653333 34.1951 0 35 0C35.805 0 36.4584 0.653333 36.4584 1.45833V24.7917C36.4584 25.5967 35.805 26.25 35 26.25Z" fill="#CE8884"/>
<path d="M51.0417 26.25C50.3154 26.25 49.6883 25.7104 49.595 24.9725L46.6783 1.63919C46.5792 0.840021 47.145 0.110854 47.9442 0.0116872C48.7462 -0.0787294 49.4725 0.478354 49.5717 1.27752L52.4883 24.6109C52.5875 25.41 52.0217 26.1392 51.2225 26.2384C51.1612 26.2471 51.1 26.25 51.0417 26.25V26.25Z" fill="#CE8884"/>
<path d="M39.3749 64.1667H13.1249C9.10575 64.1667 5.83325 60.8942 5.83325 56.875V24.7916C5.83325 23.9866 6.48659 23.3333 7.29159 23.3333H62.7083C63.5133 23.3333 64.1666 23.9866 64.1666 24.7916V27.7083C64.1666 28.5133 63.5133 29.1666 62.7083 29.1666C61.9033 29.1666 61.2499 28.5133 61.2499 27.7083V26.25H8.74992V56.875C8.74992 59.2871 10.7128 61.25 13.1249 61.25H39.3749C40.1799 61.25 40.8333 61.9033 40.8333 62.7083C40.8333 63.5133 40.1799 64.1667 39.3749 64.1667Z" fill="#CE8884"/>
<path d="M27.7083 52.5H18.9583C16.5462 52.5 14.5833 50.5371 14.5833 48.125V39.375C14.5833 36.9629 16.5462 35 18.9583 35H27.7083C30.1203 35 32.0833 36.9629 32.0833 39.375V48.125C32.0833 50.5371 30.1203 52.5 27.7083 52.5ZM18.9583 37.9167C18.1533 37.9167 17.4999 38.57 17.4999 39.375V48.125C17.4999 48.93 18.1533 49.5833 18.9583 49.5833H27.7083C28.5133 49.5833 29.1666 48.93 29.1666 48.125V39.375C29.1666 38.57 28.5133 37.9167 27.7083 37.9167H18.9583Z" fill="#CE8884"/>
</g>
<defs>
<clipPath id="clip0_328:1869">
<rect width="70" height="70" fill="white"/>
</clipPath>
</defs>
</svg>
