<svg width="242" height="34" viewBox="0 0 242 34" fill="none" xmlns="http://www.w3.org/2000/svg">
<path d="M10.2369 6.21968C11.0852 3.75183 15.2283 1.92373 17.2052 1.41345C16.978 1.2687 15.4177 0.918313 14.1225 1.01738C11.542 1.21476 6.81337 3.13486 5.44243 6.71478C4.0715 10.2947 6.02565 12.7473 7.90406 14.2935C9.78246 15.8397 15.0202 17.9894 15.6943 20.861C16.3684 23.7325 14.6945 26.1775 12.8842 27.5029C11.436 28.5631 11.0398 29.7176 11.0171 30.1061C11.6836 28.7731 18.8334 26.2315 20.194 24.6256C21.2057 23.4313 21.9057 21.3663 20.5347 18.5253C19.0231 15.3926 15.9447 13.8533 13.8422 12.4579C11.9487 11.2011 9.17653 9.3045 10.2369 6.21968Z" fill="#E4B5AF"/>
<path d="M3.77083 5.38597C6.84637 1.68183 11.9672 0.923341 14.1432 1.00711C9.11532 1.96665 4.26835 5.38597 5.11261 9.81052C5.95688 14.2351 11.1118 15.8062 14.1041 18.4279C17.2096 21.1488 15.7187 24.3864 14.6106 25.8181C13.7241 26.9635 11.9496 28.8135 11.1732 29.5953C11.231 29.344 11.4687 28.6937 11.9572 28.1027C12.5678 27.364 13.5552 26.572 13.9548 25.5439C14.3543 24.5159 14.5654 23.8609 13.3593 22.3302C12.0552 21.0356 10.2536 20.1751 8.79873 19.345C7.34388 18.5149 5.2106 16.4359 4.75078 15.8952C4.29096 15.3545 -0.073581 10.0161 3.77083 5.38597Z" fill="#1A1A1A"/>
<path d="M1.786 11.0905C1.50908 9.44442 2.0487 7.42891 2.41434 6.57178C-0.706054 11.2089 -0.235046 15.1678 0.704607 18.1161C1.60984 20.9565 3.82498 23.7861 6.79135 25.3569C8.5314 26.2783 10.4158 27.2074 11.0725 27.7131C12.0203 27.4011 14.1302 25.1035 13.2876 23.4203C12.3398 21.5267 9.54962 21.3223 6.59966 18.7186C3.64969 16.115 2.13882 13.1879 1.786 11.0905Z" fill="#636363"/>
<path d="M25.9397 9.17567C24.2097 4.49338 19.6712 2.1178 17.8182 1.64441C16.579 2.28995 14.9357 3.38736 14.0269 4.162C12.8908 5.13031 13.4828 7.01313 14.29 9.33706C15.0972 11.661 22.3123 16.7823 22.6611 19.429C22.9401 21.5463 22.1727 23.1157 21.7542 23.6357L22.3123 23.1516C24.5744 21.1719 28.1022 15.0285 25.9397 9.17567Z" fill="#636363"/>
<path d="M15.1379 6.71126C14.1369 4.6216 16.7159 2.50502 18.0627 1.70794L17.8215 1.6394C15.8314 2.21818 12.0097 4.13726 11.1955 5.85834C10.4509 7.43249 10.6604 9.02635 13.0952 10.9759C15.53 12.9254 18.4773 14.1744 20.6633 17.3195C22.4122 19.8357 22.0931 22.5945 21.7413 23.6632L22.4348 23.0463C24.3721 17.7155 22.9752 15.221 21.9976 13.8926C20.2714 11.547 16.3893 9.32335 15.1379 6.71126Z" fill="#1A1A1A"/>
<path fill-rule="evenodd" clip-rule="evenodd" d="M14.4593 28.7012C14.5813 28.6383 14.7074 28.5732 14.8372 28.5059C15.1062 28.3665 15.3847 28.2249 15.6507 28.0896C16.3005 27.7591 16.8758 27.4665 17.0563 27.3364C16.4837 28.1256 15.284 29.6453 14.5524 30.1532L15.4741 31.5825C15.6772 31.8976 15.451 32.3125 15.0762 32.3125H12.9212C12.5464 32.3125 12.3202 31.8976 12.5234 31.5825L13.4197 30.1926C13.1362 30.0368 12.9122 29.7976 12.7964 29.6318C13.1028 29.4012 13.7007 29.0927 14.4593 28.7012Z" fill="#636363"/>
<path d="M49.0824 24.976C47.3295 24.976 45.7436 24.5911 44.3246 23.8212C42.9223 23.0345 41.8204 21.9633 41.0191 20.6076C40.2178 19.2351 39.8171 17.6952 39.8171 15.988C39.8171 14.2808 40.2178 12.7493 41.0191 11.3936C41.8204 10.0211 42.9306 8.94992 44.3496 8.17999C45.7686 7.39333 47.3546 7 49.1074 7C50.4764 7 51.7284 7.23432 52.8636 7.70297C53.9988 8.15488 54.9671 8.83275 55.7684 9.73658L54.1407 11.3183C52.8219 9.92906 51.1775 9.23445 49.2076 9.23445C47.9055 9.23445 46.7285 9.52736 45.6768 10.1132C44.6251 10.699 43.7987 11.5107 43.1977 12.5485C42.6134 13.5695 42.3213 14.716 42.3213 15.988C42.3213 17.2601 42.6134 18.415 43.1977 19.4527C43.7987 20.4737 44.6251 21.2771 45.6768 21.8629C46.7285 22.4487 47.9055 22.7416 49.2076 22.7416C51.1608 22.7416 52.8052 22.0386 54.1407 20.6327L55.7684 22.2144C54.9671 23.1182 53.9905 23.8044 52.8386 24.2731C51.7034 24.7417 50.4513 24.976 49.0824 24.976Z" fill="#1A1A1A"/>
<path d="M63.3794 11.3434C65.2157 11.3434 66.6181 11.7953 67.5863 12.6991C68.5713 13.6029 69.0638 14.9503 69.0638 16.7412V24.7752H66.785V23.0178C66.3843 23.637 65.8084 24.1141 65.0572 24.4488C64.3226 24.7668 63.4462 24.9258 62.4278 24.9258C60.942 24.9258 59.7484 24.566 58.8469 23.8463C57.9621 23.1266 57.5197 22.1809 57.5197 21.0093C57.5197 19.8376 57.9454 18.9003 58.7968 18.1974C59.6482 17.4777 61.0005 17.1178 62.8535 17.1178H66.6598V16.6408C66.6598 15.6031 66.3593 14.808 65.7583 14.2557C65.1573 13.7034 64.2725 13.4272 63.1039 13.4272C62.3193 13.4272 61.5514 13.5611 60.8001 13.8289C60.0489 14.08 59.4145 14.4231 58.897 14.8582L57.8954 13.0506C58.5798 12.4983 59.3978 12.0798 60.3494 11.7953C61.301 11.494 62.311 11.3434 63.3794 11.3434ZM62.8285 23.068C63.7467 23.068 64.5396 22.8671 65.2074 22.4654C65.8752 22.047 66.3593 21.4612 66.6598 20.708V18.8501H62.9537C60.917 18.8501 59.8987 19.5364 59.8987 20.9088C59.8987 21.5783 60.1574 22.1056 60.6749 22.4905C61.1925 22.8755 61.9103 23.068 62.8285 23.068Z" fill="#1A1A1A"/>
<path d="M88.6928 11.4689V24.7752H86.5142V15.0591L81.556 23.2688H80.5043L75.5962 15.034V24.7752H73.3926V11.4689H75.8716L81.0802 20.4569L86.4391 11.4689H88.6928Z" fill="#1A1A1A"/>
<path d="M93.3718 11.4689H95.7757V21.1599L103.914 11.4689H106.093V24.7752H103.689V15.0842L95.5754 24.7752H93.3718V11.4689Z" fill="#1A1A1A"/>
<path d="M123.268 24.9258C121.916 24.9258 120.706 24.6329 119.637 24.0471C118.586 23.4613 117.759 22.6579 117.158 21.6369C116.557 20.5992 116.257 19.4276 116.257 18.122C116.257 16.8165 116.557 15.6533 117.158 14.6323C117.759 13.5946 118.586 12.7912 119.637 12.2221C120.706 11.6363 121.916 11.3434 123.268 11.3434C124.47 11.3434 125.539 11.5861 126.474 12.0715C127.425 12.5568 128.16 13.2598 128.677 14.1804L126.849 15.3604C126.432 14.7243 125.914 14.2473 125.297 13.9293C124.679 13.6113 123.994 13.4523 123.243 13.4523C122.375 13.4523 121.591 13.6448 120.889 14.0297C120.205 14.4147 119.662 14.967 119.262 15.6867C118.878 16.3897 118.686 17.2015 118.686 18.122C118.686 19.0593 118.878 19.8879 119.262 20.6076C119.662 21.3105 120.205 21.8545 120.889 22.2395C121.591 22.6244 122.375 22.8169 123.243 22.8169C123.994 22.8169 124.679 22.6579 125.297 22.3399C125.914 22.0219 126.432 21.5449 126.849 20.9088L128.677 22.0637C128.16 22.9843 127.425 23.6956 126.474 24.1978C125.539 24.6831 124.47 24.9258 123.268 24.9258Z" fill="#1A1A1A"/>
<path d="M157.421 11.4689V24.7752H138.514V11.4689H140.918V22.6663H146.778V11.4689H149.182V22.6663H155.017V11.4689H157.421Z" fill="#1A1A1A"/>
<path d="M166.821 11.3434C168.658 11.3434 170.06 11.7953 171.028 12.6991C172.013 13.6029 172.506 14.9503 172.506 16.7412V24.7752H170.227V23.0178C169.826 23.637 169.25 24.1141 168.499 24.4488C167.764 24.7668 166.888 24.9258 165.87 24.9258C164.384 24.9258 163.19 24.566 162.289 23.8463C161.404 23.1266 160.962 22.1809 160.962 21.0093C160.962 19.8376 161.387 18.9003 162.239 18.1974C163.09 17.4777 164.442 17.1178 166.295 17.1178H170.102V16.6408C170.102 15.6031 169.801 14.808 169.2 14.2557C168.599 13.7034 167.714 13.4272 166.546 13.4272C165.761 13.4272 164.993 13.5611 164.242 13.8289C163.491 14.08 162.856 14.4231 162.339 14.8582L161.337 13.0506C162.022 12.4983 162.84 12.0798 163.791 11.7953C164.743 11.494 165.753 11.3434 166.821 11.3434ZM166.27 23.068C167.189 23.068 167.982 22.8671 168.649 22.4654C169.317 22.047 169.801 21.4612 170.102 20.708V18.8501H166.396C164.359 18.8501 163.341 19.5364 163.341 20.9088C163.341 21.5783 163.599 22.1056 164.117 22.4905C164.634 22.8755 165.352 23.068 166.27 23.068Z" fill="#1A1A1A"/>
<path d="M183.871 11.3434C185.156 11.3434 186.308 11.6279 187.327 12.197C188.345 12.7661 189.138 13.5611 189.706 14.5821C190.29 15.6031 190.582 16.7831 190.582 18.122C190.582 19.461 190.29 20.6494 189.706 21.6871C189.138 22.7081 188.345 23.5031 187.327 24.0722C186.308 24.6413 185.156 24.9258 183.871 24.9258C182.919 24.9258 182.043 24.7417 181.242 24.3735C180.457 24.0053 179.789 23.4697 179.238 22.7667V29.6458H176.834V11.4689H179.138V13.5778C179.672 12.8414 180.349 12.289 181.167 11.9208C181.985 11.5359 182.886 11.3434 183.871 11.3434ZM183.671 22.8169C184.522 22.8169 185.282 22.6244 185.949 22.2395C186.634 21.8378 187.168 21.2854 187.552 20.5825C187.953 19.8627 188.153 19.0426 188.153 18.122C188.153 17.2015 187.953 16.3897 187.552 15.6867C187.168 14.967 186.634 14.4147 185.949 14.0297C185.282 13.6448 184.522 13.4523 183.671 13.4523C182.836 13.4523 182.076 13.6531 181.392 14.0548C180.724 14.4398 180.19 14.9838 179.789 15.6867C179.405 16.3897 179.213 17.2015 179.213 18.122C179.213 19.0426 179.405 19.8627 179.789 20.5825C180.173 21.2854 180.707 21.8378 181.392 22.2395C182.076 22.6244 182.836 22.8169 183.671 22.8169Z" fill="#1A1A1A"/>
<path d="M198.685 11.3434C200.522 11.3434 201.924 11.7953 202.892 12.6991C203.877 13.6029 204.37 14.9503 204.37 16.7412V24.7752H202.091V23.0178C201.69 23.637 201.114 24.1141 200.363 24.4488C199.629 24.7668 198.752 24.9258 197.734 24.9258C196.248 24.9258 195.054 24.566 194.153 23.8463C193.268 23.1266 192.826 22.1809 192.826 21.0093C192.826 19.8376 193.251 18.9003 194.103 18.1974C194.954 17.4777 196.306 17.1178 198.159 17.1178H201.966V16.6408C201.966 15.6031 201.665 14.808 201.064 14.2557C200.463 13.7034 199.578 13.4272 198.41 13.4272C197.625 13.4272 196.857 13.5611 196.106 13.8289C195.355 14.08 194.72 14.4231 194.203 14.8582L193.201 13.0506C193.886 12.4983 194.704 12.0798 195.655 11.7953C196.607 11.494 197.617 11.3434 198.685 11.3434ZM198.134 23.068C199.053 23.068 199.846 22.8671 200.513 22.4654C201.181 22.047 201.665 21.4612 201.966 20.708V18.8501H198.26C196.223 18.8501 195.205 19.5364 195.205 20.9088C195.205 21.5783 195.463 22.1056 195.981 22.4905C196.498 22.8755 197.216 23.068 198.134 23.068Z" fill="#1A1A1A"/>
<path d="M223.999 11.4689V24.7752H221.82V15.0591L216.862 23.2688H215.81L210.902 15.034V24.7752H208.698V11.4689H211.178L216.386 20.4569L221.745 11.4689H223.999Z" fill="#1A1A1A"/>
<path d="M228.678 11.4689H231.082V21.1599L239.22 11.4689H241.399V24.7752H238.995V15.0842L230.881 24.7752H228.678V11.4689Z" fill="#1A1A1A"/>
</svg>
