<svg width="30" height="30" viewBox="0 0 30 30" fill="none" xmlns="http://www.w3.org/2000/svg">
<circle cx="15" cy="15" r="15" fill="#282828"/>
<path d="M10.4446 22.5643C11.8081 23.3848 13.367 23.8172 14.9688 23.8172C19.8226 23.8172 23.8236 19.8565 23.8236 14.9968C23.8236 10.1428 19.8282 6.17651 14.9688 6.17651C10.1242 6.17651 6.18284 10.1333 6.18284 14.9968C6.18284 16.62 6.61543 18.1908 7.43577 19.5553L6.17651 23.8236L10.4446 22.5643ZM7.21658 14.9968C7.21658 10.7033 10.6942 7.21012 14.9688 7.21012C19.2813 7.21012 22.79 10.7033 22.79 14.9968C22.79 19.2905 19.2813 22.7835 14.9688 22.7835C13.4848 22.7835 12.0428 22.3632 10.7989 21.5677L10.6001 21.4408L7.70531 22.2949L8.55931 19.4L8.43235 19.2014C7.63691 17.9572 7.21658 16.5034 7.21658 14.9968Z" fill="white"/>
<path d="M10.472 13.3716C10.6427 14.2681 11.1495 15.9926 12.625 17.468C14.1005 18.9435 15.8249 19.4504 16.7216 19.6211C17.7483 19.8166 19.255 19.8461 19.9913 19.1098L20.4018 18.6993C20.609 18.4921 20.7232 18.2165 20.7232 17.9234C20.7232 17.6303 20.609 17.3548 20.4018 17.1476L18.7602 15.506C18.5529 15.2986 18.2774 15.1846 17.9843 15.1846C17.6912 15.1846 17.4157 15.2986 17.2084 15.506L16.798 15.9163C16.5473 16.167 16.0741 16.1681 15.8215 15.9194L14.1841 14.2133C14.1816 14.2108 14.1792 14.2082 14.1767 14.2058C13.9256 13.9547 13.9256 13.5461 14.1767 13.295L14.587 12.8846C15.016 12.4557 15.016 11.7616 14.587 11.3328L12.9454 9.69117C12.5177 9.26343 11.8216 9.26343 11.3937 9.69117L10.9833 10.1017V10.1015C10.3957 10.6894 10.1998 11.9423 10.472 13.3716ZM11.7143 10.8326C12.1451 10.4116 12.1221 10.4035 12.1696 10.4035C12.1859 10.4035 12.2022 10.4097 12.2146 10.4221C13.9444 12.1612 13.8749 12.059 13.8749 12.1088C13.8749 12.1262 13.8686 12.1414 13.8564 12.1538L13.4458 12.5642C12.7922 13.2178 12.7896 14.2759 13.4417 14.9326L15.0801 16.6398C15.0826 16.6422 15.085 16.6447 15.0876 16.6473C15.7411 17.3008 16.8733 17.303 17.529 16.6473L17.9393 16.2369C17.9641 16.2121 18.0045 16.2121 18.0293 16.2369C19.7591 17.9759 19.6896 17.8737 19.6896 17.9235C19.6896 17.941 19.6833 17.9561 19.671 17.9685L19.2605 18.3788C18.9793 18.6601 18.0834 18.8284 16.9149 18.6058C16.1351 18.4572 14.6356 18.0169 13.3559 16.7372C12.0762 15.4575 11.6359 13.9581 11.4874 13.1782C11.2647 12.0097 11.433 11.1137 11.7143 10.8326Z" fill="white"/>
</svg>
