<svg width="56" height="25" viewBox="0 0 56 25" fill="none" xmlns="http://www.w3.org/2000/svg">
<path d="M26.3547 12.6653V19.1071H24.2969V3.19866H29.7546C30.4061 3.18514 31.0538 3.29988 31.6604 3.53626C32.267 3.77264 32.8204 4.12597 33.2888 4.57587C33.7619 4.99845 34.1384 5.5167 34.393 6.09579C34.6476 6.67489 34.7745 7.3014 34.7651 7.93322C34.7786 8.56843 34.6537 9.19903 34.3989 9.78181C34.1441 10.3646 33.7654 10.8858 33.2888 11.3096C32.3344 12.2134 31.1564 12.6648 29.7546 12.664H26.3547V12.6653ZM26.3547 5.15722V10.7105H29.8058C30.1841 10.7216 30.5606 10.6542 30.9112 10.5126C31.2618 10.371 31.5788 10.1582 31.8419 9.88798C32.1036 9.6353 32.3116 9.33308 32.4537 8.99918C32.5957 8.66528 32.6689 8.30649 32.6689 7.94401C32.6689 7.58154 32.5957 7.22274 32.4537 6.88884C32.3116 6.55494 32.1036 6.25272 31.8419 6.00005C31.5821 5.72411 31.2662 5.50615 30.9152 5.36063C30.5642 5.2151 30.186 5.14534 29.8058 5.15595H26.3547V5.15722Z" fill="#5F6368"/>
<path d="M39.506 7.86737C41.0271 7.86737 42.2277 8.27101 43.1079 9.0783C43.9882 9.88559 44.4278 10.9924 44.427 12.3988V19.1072H42.4586V17.5967H42.3691C41.517 18.8407 40.3837 19.4626 38.9692 19.4626C37.7618 19.4626 36.7516 19.1072 35.9387 18.3964C35.5486 18.0701 35.2367 17.6616 35.0257 17.2004C34.8148 16.7393 34.7101 16.2372 34.7193 15.7308C34.7193 14.6045 35.1479 13.7088 36.0051 13.0437C36.8624 12.3785 38.0068 12.0451 39.4383 12.0434C40.6602 12.0434 41.6666 12.2656 42.4573 12.7098V12.2427C42.4597 11.8975 42.3846 11.5561 42.2376 11.2432C42.0906 10.9304 41.8753 10.6539 41.6074 10.4339C41.0632 9.94636 40.354 9.68033 39.6211 9.68885C38.4716 9.68885 37.562 10.1703 36.8922 11.1333L35.0798 9.99983C36.0767 8.57819 37.5522 7.86737 39.506 7.86737ZM36.8436 15.7752C36.8422 16.0353 36.9035 16.292 37.0222 16.5238C37.1409 16.7556 37.3137 16.9559 37.5262 17.108C37.9813 17.4636 38.5462 17.6519 39.1252 17.6411C39.9935 17.6397 40.8259 17.2965 41.4399 16.6866C42.1216 16.0494 42.4625 15.3018 42.4625 14.4437C41.8208 13.936 40.9261 13.6821 39.7783 13.6821C38.9424 13.6821 38.2453 13.8823 37.6872 14.2825C37.1235 14.6887 36.8436 15.1825 36.8436 15.7752V15.7752Z" fill="#5F6368"/>
<path d="M55.7258 8.22263L48.8544 23.9051H46.7301L49.28 18.4178L44.7617 8.22263H46.9985L50.2642 16.0416H50.309L53.4852 8.22263H55.7258Z" fill="#5F6368"/>
<path d="M18.0404 11.2769C18.0411 10.6541 17.9881 10.0324 17.8819 9.41861H9.20312V12.9384H14.1739C14.0722 13.5006 13.8569 14.0365 13.541 14.5138C13.2251 14.9911 12.8152 15.4 12.3359 15.7157V18.0005H15.3025C17.0396 16.41 18.0404 14.058 18.0404 11.2769Z" fill="#4285F4"/>
<path d="M9.20292 20.2071C11.6864 20.2071 13.7775 19.3972 15.3023 18.001L12.3357 15.7162C11.51 16.2722 10.4466 16.5895 9.20292 16.5895C6.80252 16.5895 4.76512 14.9825 4.03657 12.8171H0.980469V15.1717C1.74643 16.6853 2.92095 17.9577 4.3729 18.8469C5.82486 19.7361 7.49709 20.207 9.20292 20.2071V20.2071Z" fill="#34A853"/>
<path d="M4.03603 12.8172C3.65087 11.6824 3.65087 10.4536 4.03603 9.3189V6.96431H0.979935C0.33558 8.23763 0 9.64296 0 11.068C0 12.4931 0.33558 13.8984 0.979935 15.1717L4.03603 12.8172Z" fill="#FBBC04"/>
<path d="M9.20292 5.54672C10.5153 5.52543 11.7835 6.01787 12.7332 6.91759L15.3598 4.30914C13.6943 2.75558 11.4878 1.90266 9.20292 1.92916C7.49709 1.92924 5.82486 2.40015 4.3729 3.28932C2.92095 4.17848 1.74643 5.45092 0.980469 6.96456L4.03657 9.31915C4.76512 7.15368 6.80252 5.54672 9.20292 5.54672Z" fill="#EA4335"/>
</svg>
