<svg width="56" height="25" viewBox="0 0 56 25" fill="none" xmlns="http://www.w3.org/2000/svg">
<path d="M10.4705 4.90304C9.81846 5.68233 8.77515 6.29698 7.73185 6.20918C7.60144 5.15549 8.11222 4.03594 8.70995 3.34445C9.36201 2.54321 10.5031 1.97246 11.4269 1.92856C11.5356 3.02615 11.1117 4.10179 10.4705 4.90304ZM11.416 6.41772C9.9054 6.32991 8.61214 7.28482 7.89487 7.28482C7.16673 7.28482 6.06909 6.46162 4.87363 6.48357C3.31955 6.50553 1.87414 7.39458 1.08079 8.81047C-0.549371 11.6423 0.656949 15.8351 2.23277 18.14C3.00438 19.2815 3.92814 20.5328 5.14533 20.4889C6.29731 20.445 6.75375 19.7315 8.14482 19.7315C9.54676 19.7315 9.94887 20.4889 11.1661 20.4669C12.4267 20.445 13.2201 19.3254 13.9917 18.1839C14.872 16.8888 15.2306 15.6265 15.2523 15.5607C15.2306 15.5387 12.818 14.6058 12.7962 11.7959C12.7745 9.44708 14.6981 8.32753 14.785 8.26168C13.6982 6.63724 12.0029 6.46162 11.416 6.41772ZM20.1428 3.2347V20.3462H22.7728V14.496H26.4135C29.739 14.496 32.0756 12.1911 32.0756 8.85438C32.0756 5.51769 29.7825 3.2347 26.5004 3.2347H20.1428V3.2347ZM22.7728 5.47379H25.8049C28.0871 5.47379 29.3913 6.70309 29.3913 8.86535C29.3913 11.0276 28.0871 12.2679 25.794 12.2679H22.7728V5.47379V5.47379ZM36.8791 20.4779C38.531 20.4779 40.0634 19.6328 40.7589 18.2937H40.8133V20.3462H43.2476V11.8289C43.2476 9.35927 41.2914 7.76776 38.2811 7.76776C35.4881 7.76776 33.4232 9.38122 33.3471 11.5984H35.7163C35.9119 10.5447 36.8791 9.85319 38.205 9.85319C39.8134 9.85319 40.7155 10.6105 40.7155 12.0045V12.9484L37.4334 13.146C34.3796 13.3326 32.7277 14.5948 32.7277 16.79C32.7277 19.0071 34.4339 20.4779 36.8791 20.4779ZM37.5855 18.4473C36.1836 18.4473 35.2925 17.7668 35.2925 16.7241C35.2925 15.6485 36.151 15.0229 37.792 14.9241L40.7155 14.7375V15.7034C40.7155 17.3059 39.3679 18.4473 37.5855 18.4473ZM46.4971 25C49.0619 25 50.2682 24.0122 51.3224 21.0157L55.9412 7.9324H53.2677L50.1704 18.0412H50.1161L47.0187 7.9324H44.2692L48.725 20.3901L48.4859 21.1474C48.0838 22.4316 47.4317 22.9255 46.2689 22.9255C46.0624 22.9255 45.6603 22.9036 45.4973 22.8816V24.9341C45.6494 24.978 46.3015 25 46.4971 25Z" fill="black"/>
</svg>
