<svg width="21" height="20" viewBox="0 0 21 20" xmlns="http://www.w3.org/2000/svg">
<path d="M5.33719 18.5728C6.88245 19.5027 8.64926 19.9928 10.4646 19.9928C15.9655 19.9928 20.5 15.504 20.5 9.99634C20.5 4.49509 15.972 0 10.4646 0C4.97403 0 0.507172 4.48441 0.507172 9.99634C0.507172 11.8359 0.997437 13.6162 1.92715 15.1627L0.5 20L5.33719 18.5728ZM1.67874 9.99634C1.67874 5.13031 5.62009 1.17142 10.4646 1.17142C15.3521 1.17142 19.3286 5.13031 19.3286 9.99634C19.3286 14.8625 15.3521 18.8213 10.4646 18.8213C8.78278 18.8213 7.14841 18.3449 5.73865 17.4434L5.51343 17.2995L2.23264 18.2675L3.2005 14.9866L3.05661 14.7615C2.15512 13.3514 1.67874 11.7038 1.67874 9.99634Z"/>
<path d="M5.36822 8.15424C5.5617 9.17033 6.13604 11.1247 7.80825 12.7969C9.48046 14.4691 11.4348 15.0436 12.451 15.2371C13.6147 15.4586 15.3223 15.492 16.1568 14.6575L16.622 14.1923C16.8569 13.9575 16.9863 13.6451 16.9863 13.3129C16.9863 12.9808 16.8569 12.6686 16.622 12.4337L14.7615 10.5732C14.5265 10.3382 14.2143 10.209 13.8822 10.209C13.55 10.209 13.2378 10.3382 13.0028 10.5732L12.5377 11.0383C12.2536 11.3224 11.7172 11.3236 11.431 11.0418L9.57522 9.10822C9.57247 9.10532 9.56973 9.10242 9.56683 9.09968C9.28225 8.8151 9.28225 8.352 9.56683 8.06742L10.0319 7.60233C10.5181 7.11619 10.5181 6.3296 10.0319 5.84361L8.17141 3.9831C7.68664 3.49833 6.89776 3.49833 6.41284 3.9831L5.94775 4.44834V4.44819C5.2817 5.11439 5.05969 6.53437 5.36822 8.15424ZM6.77615 5.27674C7.26443 4.7996 7.23834 4.79044 7.2922 4.79044C7.31066 4.79044 7.32913 4.79746 7.34316 4.8115C9.30361 6.78248 9.22488 6.66666 9.22488 6.72312C9.22488 6.74281 9.21771 6.76005 9.20382 6.77409L8.73858 7.23917C7.99777 7.97999 7.99487 9.17918 8.73385 9.92335L10.5907 11.8582C10.5936 11.8609 10.5963 11.8638 10.5992 11.8667C11.3399 12.6074 12.623 12.6098 13.3661 11.8667L13.8312 11.4016C13.8593 11.3735 13.9051 11.3735 13.9331 11.4016C15.8936 13.3724 15.8148 13.2566 15.8148 13.3131C15.8148 13.3329 15.8077 13.35 15.7938 13.3641L15.3285 13.8291C15.0098 14.1479 13.9945 14.3386 12.6702 14.0864C11.7864 13.9179 10.087 13.419 8.63665 11.9686C7.1863 10.5183 6.68734 8.81892 6.51904 7.93513C6.26666 6.61082 6.45739 5.59534 6.77615 5.27674Z"/>
</svg>
