<svg width="60" height="31" viewBox="0 0 60 31" fill="none" xmlns="http://www.w3.org/2000/svg">
<path d="M52.6691 6.78571H41.7969C42.4302 10.2464 45.9135 13.5036 49.7135 13.5036H58.3691C58.4747 13.1982 58.4746 12.6893 58.4746 12.3839C58.4746 9.33035 55.8357 6.78571 52.6691 6.78571Z" fill="url(#paint0_linear_239_7361)"/>
<path d="M42.7422 14.1143V22.5625H48.02V18.0839H52.6644C55.1977 18.0839 57.4144 16.3535 58.1533 14.1143H42.7422Z" fill="#4FAD50"/>
<path d="M24.1641 6.78571V22.4607H28.8085C28.8085 22.4607 29.9696 22.4607 30.603 21.3411C33.7696 15.3357 34.7196 13.5036 34.7196 13.5036H35.353V22.4607H40.6307V6.78571H35.9863C35.9863 6.78571 34.8252 6.8875 34.1918 7.90535C31.553 13.0964 30.0752 15.7429 30.0752 15.7429H29.4418V6.78571H24.1641Z" fill="#4FAD50"/>
<path d="M2 22.5626V6.88762H7.27778C7.27778 6.88762 8.75557 6.88762 9.60001 9.1269C11.7111 15.0305 11.9222 15.8448 11.9222 15.8448C11.9222 15.8448 12.3445 14.4198 14.2445 9.1269C15.0889 6.88762 16.5667 6.88762 16.5667 6.88762H21.8445V22.5626H16.5667V14.1144H15.9333L12.9778 22.5626H10.6556L7.70003 14.1144H7.06669V22.5626H2Z" fill="#4FAD50"/>
<defs>
<linearGradient id="paint0_linear_239_7361" x1="41.7781" y1="10.1928" x2="58.4373" y2="10.1928" gradientUnits="userSpaceOnUse">
<stop stop-color="#27B1E6"/>
<stop offset="1" stop-color="#148ACA"/>
</linearGradient>
</defs>
</svg>
