<svg width="323" height="289" viewBox="0 0 323 289" fill="none" xmlns="http://www.w3.org/2000/svg">
<path d="M62.8923 64.8923H272.334L249.602 189.938H130.626V179.518H240.901L259.85 75.3128H63.9239L82.8736 179.518H99.364V189.938H74.1725L52.4718 64.8923V28.4205H16V18H62.8923V64.8923ZM120.205 179.518H109.785V189.938H120.205V179.518ZM160.991 118.297L187.673 90.9435L196.572 100.061L169.885 127.415L196.572 154.769L187.673 163.887L160.991 136.533L134.309 163.887L125.415 154.769L152.097 127.415L125.415 100.061L134.309 90.9435L160.991 118.297Z" fill="#E0E0E0"/>
<path fill-rule="evenodd" clip-rule="evenodd" d="M118.766 262.652C132.667 262.652 143.936 251.383 143.936 237.482C143.936 223.581 132.667 212.312 118.766 212.312C104.865 212.312 93.5958 223.581 93.5958 237.482C93.5958 251.383 104.865 262.652 118.766 262.652ZM118.766 272C137.83 272 153.284 256.546 153.284 237.482C153.284 218.418 137.83 202.964 118.766 202.964C99.7022 202.964 84.248 218.418 84.248 237.482C84.248 256.546 99.7022 272 118.766 272Z" fill="#E0E0E0"/>
<path fill-rule="evenodd" clip-rule="evenodd" d="M206.037 262.652C219.939 262.652 231.208 251.383 231.208 237.482C231.208 223.581 219.939 212.312 206.037 212.312C192.136 212.312 180.867 223.581 180.867 237.482C180.867 251.383 192.136 262.652 206.037 262.652ZM206.037 272C225.101 272 240.555 256.546 240.555 237.482C240.555 218.418 225.101 202.964 206.037 202.964C186.974 202.964 171.52 218.418 171.52 237.482C171.52 256.546 186.974 272 206.037 272Z" fill="#E0E0E0"/>
<rect x="113.43" y="82.1528" width="92.2127" height="92.2127" fill="white"/>
<path fill-rule="evenodd" clip-rule="evenodd" d="M169.603 125.931L190.56 104.973L184.685 99.098L163.727 120.055L142.77 99.098L136.895 104.973L157.852 125.931L136.895 146.888L142.77 152.764L163.727 131.806L184.685 152.764L190.56 146.888L169.603 125.931Z" fill="#1A1A1A"/>
</svg>
